<?xml version="1.0" encoding="UTF-8"?>
<svg version="1.1" xmlns="http://www.w3.org/2000/svg" width="1355" height="872">
<path d="M0 0 C447.15 0 894.3 0 1355 0 C1355 287.76 1355 575.52 1355 872 C907.85 872 460.7 872 0 872 C0 584.24 0 296.48 0 0 Z " fill="#F9F9F9" transform="translate(0,0)"/>
<path d="M0 0 C1.01114868 0.52364136 1.01114868 0.52364136 2.04272461 1.05786133 C4.45355224 2.31486563 6.85190011 3.59388495 9.25 4.875 C10.21115723 5.38434082 11.17231445 5.89368164 12.16259766 6.41845703 C24.76170806 13.1011535 37.2397054 19.97113171 49.62402344 27.04296875 C57.73213042 31.64418652 65.98083624 35.94542381 74.26806641 40.21337891 C81.01864073 43.69554227 87.68957085 47.286195 94.31176758 51.00561523 C100.75281031 54.61740817 107.24551902 58.12890148 113.75 61.625 C114.84683105 62.21498779 115.94366211 62.80497559 117.07373047 63.4128418 C122.74398397 66.46057215 128.41865492 69.49985281 134.09765625 72.53125 C143.87973174 77.76045274 153.65557411 82.99416675 163.25 88.5625 C163.94424072 88.96049805 164.63848145 89.35849609 165.35375977 89.76855469 C168.45569179 91.59768417 170.21916193 92.82874289 172.25 95.875 C172.99829501 101.40450632 173.31361014 106.26346949 170.1875 111 C161.6410529 116.455179 150.92413339 115.93979002 141.25 113.875 C141.2871991 139.50110213 141.34710775 165.12706461 141.43390274 190.7530489 C141.47367803 202.65218132 141.50607824 214.55124776 141.52099609 226.45043945 C141.53402038 236.82420249 141.56100505 247.19782023 141.60461307 257.57150143 C141.62721021 263.06210266 141.64291172 268.5525248 141.64188385 274.04317665 C141.64113622 279.21672701 141.65912872 284.38988174 141.69116783 289.5633297 C141.69964966 291.45667083 141.70142849 293.35005643 141.69580269 295.2434082 C141.67011895 305.22018404 141.86902067 313.68586386 146.25 322.875 C146.74247613 324.12835098 147.22605469 325.38525843 147.69799805 326.64648438 C148.13152588 327.74283203 148.56505371 328.83917969 149.01171875 329.96875 C149.49060547 331.18304687 149.96949219 332.39734375 150.46289062 333.6484375 C150.95432037 334.89066722 151.44585784 336.13285433 151.9375 337.375 C152.92156334 339.86419472 153.90436595 342.35387886 154.88671875 344.84375 C155.31686279 345.93107422 155.74700684 347.01839844 156.19018555 348.13867188 C158.15633817 353.21506869 159.07410482 357.44887165 158.25 362.875 C156.55934699 366.20018476 154.29807355 368.36018292 150.92086828 370.01907694 C148.02753233 370.94629337 145.73742831 371.12780395 142.70360756 371.13226891 C141.59373281 371.1387178 140.48385806 371.14516669 139.34035075 371.151811 C138.12625918 371.1487138 136.91216762 371.1456166 135.6612854 371.14242554 C134.36746614 371.14695665 133.07364688 371.15148776 131.74062097 371.15615618 C128.15110745 371.1683917 124.5616871 371.16812508 120.97215748 371.16576743 C117.10021337 371.16535941 113.22829919 371.17639699 109.35636902 371.18588257 C101.77136601 371.20249624 94.18639408 371.20799227 86.6013744 371.20910732 C80.43640752 371.21005756 74.27145091 371.21416665 68.10648727 371.22050858 C50.62948595 371.23812149 33.15250918 371.24734729 15.67549892 371.24584763 C14.7332874 371.24576772 13.79107588 371.2456878 12.8203125 371.24560547 C11.4052707 371.24548283 11.4052707 371.24548283 9.96164219 371.24535771 C-5.32992162 371.24454465 -20.62138698 371.26368714 -35.91292231 371.2918822 C-51.61238371 371.32060114 -67.31179708 371.33442306 -83.01128542 371.33269465 C-91.82610203 371.33203044 -100.6408154 371.33753652 -109.45560837 371.35905075 C-116.96007815 371.37724946 -124.46439788 371.38162066 -131.96888016 371.3680319 C-135.79764097 371.36149576 -139.62611381 371.36140811 -143.45484734 371.3787384 C-147.60588955 371.39733437 -151.75626321 371.38493174 -155.90731812 371.36947632 C-157.11694824 371.37976344 -158.32657836 371.39005057 -159.57286394 371.40064943 C-166.1769427 371.34617705 -170.40965908 370.88831141 -175.75 366.875 C-178.7660211 362.61905912 -178.47333219 357.86913702 -177.75 352.875 C-176.06455 347.40715219 -173.95930891 342.14930786 -171.75 336.875 C-171.29753906 335.78316406 -170.84507812 334.69132812 -170.37890625 333.56640625 C-169.56129285 331.6077 -168.73985803 329.65058322 -167.9140625 327.6953125 C-164.15727925 318.59330745 -161.60479837 310.7742781 -161.59178162 300.87077332 C-161.58684364 300.07020848 -161.58190566 299.26964365 -161.57681805 298.44481927 C-161.56147484 295.76554237 -161.55309104 293.08628938 -161.54467773 290.40698242 C-161.53509671 288.48508494 -161.5250865 286.56318957 -161.51467896 284.64129639 C-161.48764812 279.42483011 -161.46662867 274.2083548 -161.44667697 268.99185729 C-161.42480621 263.539909 -161.39742285 258.08798849 -161.37062073 252.63606262 C-161.3207086 242.31248987 -161.27576426 231.98890168 -161.23259836 221.66529876 C-161.18321336 209.9120628 -161.1282999 198.15885472 -161.07291877 186.40564573 C-160.95912144 162.22878983 -160.85227748 138.05190718 -160.75 113.875 C-161.6754512 113.9803582 -161.6754512 113.9803582 -162.61959839 114.08784485 C-163.42946198 114.17914169 -164.23932556 114.27043854 -165.07373047 114.36450195 C-165.87632294 114.45536575 -166.67891541 114.54622955 -167.50582886 114.6398468 C-174.12882642 115.33383089 -180.50822411 115.44514301 -186.75 112.875 C-190.53214612 109.58617729 -192.61209168 107.66780822 -193 102.625 C-192.71492042 98.34880631 -192.21372678 96.3839442 -189.75 92.875 C-183.71279171 88.15940642 -176.8653149 84.70554669 -170.0625 81.25 C-162.22097568 77.21255414 -154.42264018 73.11294705 -146.6875 68.875 C-145.78056396 68.37830811 -144.87362793 67.88161621 -143.93920898 67.36987305 C-142.11162733 66.36782894 -140.28439563 65.36514629 -138.45751953 64.36181641 C-125.03834448 56.99276537 -111.58073309 49.69815966 -98.08093262 42.47796631 C-86.90120533 36.49836886 -75.74383156 30.47844389 -64.60400391 24.42480469 C-61.77261094 22.88727838 -58.93915589 21.35360559 -56.10546875 19.8203125 C-45.85671045 14.26329177 -35.67616327 8.61455398 -25.62426758 2.70678711 C-16.52116744 -2.58001682 -9.79164647 -5.23757191 0 0 Z " fill="#223A5C" transform="translate(676.75,190.125)"/>
<path d="M0 0 C83.16 0 166.32 0 252 0 C252 13.86 252 27.72 252 42 C168.84 42 85.68 42 0 42 C0 28.14 0 14.28 0 0 Z " fill="#F9F9F9" transform="translate(541,305)"/>
<path d="M0 0 C2.0933967 1.05465015 4.17297178 2.13694434 6.2421875 3.23828125 C6.83842422 3.55522446 7.43466095 3.87216766 8.04896545 4.19871521 C9.99262713 5.233583 11.93393532 6.27277027 13.875 7.3125 C14.54338898 7.6693689 15.21177795 8.02623779 15.90042114 8.3939209 C25.59072083 13.56966975 35.18591353 18.89059843 44.72387695 24.34277344 C52.2013458 28.59752509 59.7936448 32.59825384 67.43603516 36.54736328 C76.82575204 41.40488707 86.10496109 46.45250118 95.36328125 51.55517578 C98.01570295 53.00860463 100.6783076 54.4417061 103.34375 55.87109375 C105.00008605 56.76807028 106.65634013 57.66519821 108.3125 58.5625 C109.07796143 58.96807129 109.84342285 59.37364258 110.63208008 59.79150391 C115.88678886 62.66036659 115.88678886 62.66036659 117 66 C36.81 66 -43.38 66 -126 66 C-124.62582319 61.87746957 -121.94166001 61.08384995 -118.2734375 59.2265625 C-117.5829834 58.86677811 -116.8925293 58.50699371 -116.18115234 58.13630676 C-114.69342306 57.36200469 -113.20348256 56.59193963 -111.71160889 55.82565308 C-107.77643557 53.80358684 -103.85766613 51.75018525 -99.9375 49.69921875 C-98.7682045 49.08884514 -98.7682045 49.08884514 -97.57528687 48.46614075 C-91.43331296 45.25134926 -85.38314515 41.89626259 -79.375 38.4375 C-69.56038534 32.80533657 -59.59348409 27.48898378 -49.58938599 22.20413208 C-41.62442797 17.99626288 -33.67546838 13.77182579 -25.8125 9.375 C-25.12027344 8.99029541 -24.42804688 8.60559082 -23.71484375 8.20922852 C-20.52511461 6.43223919 -17.35709735 4.62652076 -14.2109375 2.7734375 C-13.03647697 2.09892588 -11.8619989 1.42444481 -10.6875 0.75 C-9.20830078 -0.12398437 -9.20830078 -0.12398437 -7.69921875 -1.015625 C-4.19489321 -2.29361347 -3.33191403 -1.54744047 0 0 Z " fill="#F7F7F8" transform="translate(672,215)"/>
<path d="M0 0 C3.56384976 2.07545327 6.08823095 4.27389015 8.3125 7.8125 C8.6425 4.8425 8.9725 1.8725 9.3125 -1.1875 C13.9325 -1.1875 18.5525 -1.1875 23.3125 -1.1875 C23.40312436 8.04468224 23.47640159 17.27656562 23.51974869 26.50909328 C23.54056058 30.79683999 23.56875992 35.08426472 23.61425781 39.37182617 C23.6579457 43.51508276 23.68168515 47.65803104 23.69200897 51.80150032 C23.69935943 53.37665721 23.71371267 54.95179858 23.73542023 56.52682304 C23.87204542 66.85737695 22.94096033 74.26309008 17.1875 83.0625 C9.68995197 90.23406768 -0.39466077 93.20467554 -10.625 93.125 C-11.3257666 93.12298584 -12.0265332 93.12097168 -12.74853516 93.11889648 C-18.99660044 92.99753955 -23.17178382 91.57035809 -28.6875 88.8125 C-28.6875 84.8525 -28.6875 80.8925 -28.6875 76.8125 C-27.511875 77.3075 -26.33625 77.8025 -25.125 78.3125 C-17.32951555 80.90277173 -7.8544859 81.19903564 0 78.625 C4.11977669 76.37078256 6.2328591 73.97178179 8.3125 69.8125 C8.38342842 67.6052077 8.39665025 65.39582548 8.375 63.1875 C8.36597656 61.99898437 8.35695313 60.81046875 8.34765625 59.5859375 C8.33605469 58.67070313 8.32445312 57.75546875 8.3125 56.8125 C7.3534375 58.17375 7.3534375 58.17375 6.375 59.5625 C1.9770179 64.68942941 -2.76219006 66.45605467 -9.40625 67.265625 C-19.75225016 67.88753623 -27.53122699 65.60567808 -35.83984375 59.13671875 C-40.01439107 55.29754732 -42.59447056 51.05033248 -44.6875 45.8125 C-45.1 44.78125 -45.5125 43.75 -45.9375 42.6875 C-48.2670718 30.65137903 -46.68820665 20.95610887 -40.2890625 10.53515625 C-31.0815562 -1.64025182 -13.89590123 -6.38680923 0 0 Z " fill="#161616" transform="translate(543.6875,637.1875)"/>
<path d="M0 0 C3.20717667 1.87307656 5.94485087 3.84424879 8.3125 6.75 C8.6425 4.11 8.9725 1.47 9.3125 -1.25 C13.9325 -1.25 18.5525 -1.25 23.3125 -1.25 C23.40317735 7.96491161 23.47643182 17.17952276 23.51974869 26.39478111 C23.54054759 30.67465277 23.5687227 34.95420109 23.61425781 39.23388672 C23.65799267 43.37066411 23.68169487 47.50713218 23.69200897 51.64412308 C23.69935112 53.21566252 23.71368766 54.78718667 23.73542023 56.35859299 C23.86742568 66.30683584 23.53169633 75.01466536 17.41015625 83.3359375 C8.04980148 91.56442595 -2.76446342 93.64340016 -14.91796875 93.15625 C-20.13620842 92.59386977 -24.00944142 91.08902929 -28.6875 88.75 C-28.6875 84.79 -28.6875 80.83 -28.6875 76.75 C-27.511875 77.245 -26.33625 77.74 -25.125 78.25 C-17.32951555 80.84027173 -7.8544859 81.13653564 0 78.5625 C4.11977669 76.30828256 6.2328591 73.90928179 8.3125 69.75 C8.38342842 67.5427077 8.39665025 65.33332548 8.375 63.125 C8.36597656 61.93648437 8.35695313 60.74796875 8.34765625 59.5234375 C8.33605469 58.60820313 8.32445312 57.69296875 8.3125 56.75 C7.3534375 58.11125 7.3534375 58.11125 6.375 59.5 C2.1516205 64.4507393 -2.63806028 66.43624262 -9.06640625 67.09765625 C-19.76702298 67.36315159 -27.31761658 65.64457997 -35.609375 58.7734375 C-42.57663915 51.98952241 -45.88405088 44.25974111 -46.01733398 34.546875 C-45.9238027 22.82780069 -44.36865584 14.35032571 -35.6875 5.75 C-25.18529891 -1.91775368 -12.36651308 -5.9808285 0 0 Z " fill="#141414" transform="translate(705.6875,637.25)"/>
<path d="M0 0 C4.62 0 9.24 0 14 0 C20.2663309 12.37899156 26.24261937 24.88093378 32.14550781 37.43652344 C37.28739772 48.36578387 42.54482398 59.22342612 48 70 C59.30781803 46.80423396 70.34174889 23.50281014 81 0 C85.95 0 90.9 0 96 0 C96 30.03 96 60.06 96 91 C91.05 91 86.1 91 81 91 C80.67 72.85 80.34 54.7 80 36 C72.78735216 50.85979254 65.78015373 65.76042088 59.1027832 80.8659668 C58.58031006 82.04457275 58.05783691 83.22317871 57.51953125 84.4375 C57.05651611 85.48808594 56.59350098 86.53867187 56.11645508 87.62109375 C55 90 55 90 54 91 C51.81360547 91.07258946 49.62499611 91.08373783 47.4375 91.0625 C45.64119141 91.04896484 45.64119141 91.04896484 43.80859375 91.03515625 C42.41833984 91.01775391 42.41833984 91.01775391 41 91 C40.49138428 89.89712646 39.98276855 88.79425293 39.45874023 87.65795898 C37.53752925 83.49227546 35.61587161 79.32679809 33.6940918 75.16137695 C32.8687782 73.37236902 32.04357927 71.58330818 31.21850586 69.79418945 C30.01968449 67.19467832 28.82042461 64.59536985 27.62109375 61.99609375 C27.26349472 61.22043564 26.90589569 60.44477753 26.53746033 59.64561462 C23.04842192 52.08590935 19.52107345 44.5451574 16 37 C15.67 54.82 15.34 72.64 15 91 C10.05 91 5.1 91 0 91 C0 60.97 0 30.94 0 0 Z " fill="#161616" transform="translate(210,612)"/>
<path d="M0 0 C4.62 0 9.24 0 14 0 C25.31577125 23.18353133 36.60896209 46.38263371 47 70 C49.851119 66.55294593 51.68237276 62.74695202 53.5546875 58.71875 C53.89295563 58.00032425 54.23122375 57.2818985 54.57974243 56.54170227 C55.68255119 54.19650085 56.77880059 51.84829704 57.875 49.5 C58.63439866 47.88223329 59.39416726 46.26464018 60.15429688 44.6472168 C63.7834108 36.91681174 67.38767823 29.17493687 70.9765625 21.42578125 C71.28012665 20.77056488 71.5836908 20.11534851 71.89645386 19.4402771 C73.31905506 16.36830432 74.73797932 13.29475605 76.15185547 10.21875 C76.64830566 9.14238281 77.14475586 8.06601562 77.65625 6.95703125 C78.08744141 6.01835205 78.51863281 5.07967285 78.96289062 4.11254883 C80 2 80 2 81 1 C85.62 1 90.24 1 95 1 C95 30.7 95 60.4 95 91 C90.38 91 85.76 91 81 91 C80.67 72.52 80.34 54.04 80 35 C74.06214659 47.81739772 74.06214659 47.81739772 68.12475586 60.63500977 C63.43210761 70.7639917 58.7284584 80.88768233 54 91 C49.71 91 45.42 91 41 91 C39.06089519 86.90248451 37.12646932 82.80279596 35.19555664 78.70141602 C34.54435876 77.3196905 33.89209028 75.93846881 33.23852539 74.55786133 C26.89151388 61.14652211 20.98003317 47.59098447 15 34 C14.67 52.81 14.34 71.62 14 91 C9.38 91 4.76 91 0 91 C0 60.97 0 30.94 0 0 Z " fill="#131313" transform="translate(821,612)"/>
<path d="M0 0 C3.56384976 2.07545327 6.08823095 4.27389015 8.3125 7.8125 C8.6425 4.8425 8.9725 1.8725 9.3125 -1.1875 C13.9325 -1.1875 18.5525 -1.1875 23.3125 -1.1875 C23.3125 20.9225 23.3125 43.0325 23.3125 65.8125 C18.6925 65.8125 14.0725 65.8125 9.3125 65.8125 C8.8175 61.3575 8.8175 61.3575 8.3125 56.8125 C7.3534375 58.17375 7.3534375 58.17375 6.375 59.5625 C1.9770179 64.68942941 -2.76219006 66.45605467 -9.40625 67.265625 C-19.84924198 67.8959689 -27.82611897 65.68556804 -36.02734375 58.8671875 C-43.21996013 51.60760077 -46.8757914 42.35148852 -47.25 32.1875 C-46.78014677 21.92491628 -43.0907443 13.01944616 -35.6875 5.8125 C-25.16477665 -1.84935794 -12.41592993 -5.87539541 0 0 Z " fill="#151515" transform="translate(624.6875,637.1875)"/>
<path d="M0 0 C3.27522853 1.95226504 6.05426106 4.42561361 8.7890625 7.06640625 C9.1190625 4.42640625 9.4490625 1.78640625 9.7890625 -0.93359375 C14.4090625 -0.93359375 19.0290625 -0.93359375 23.7890625 -0.93359375 C23.7890625 21.17640625 23.7890625 43.28640625 23.7890625 66.06640625 C19.1690625 66.06640625 14.5490625 66.06640625 9.7890625 66.06640625 C9.2940625 62.10640625 9.2940625 62.10640625 8.7890625 58.06640625 C8.26957031 58.54851563 7.75007812 59.030625 7.21484375 59.52734375 C6.51746094 60.15898438 5.82007813 60.790625 5.1015625 61.44140625 C4.41707031 62.06789063 3.73257813 62.694375 3.02734375 63.33984375 C-3.73837177 68.55877265 -12.1059023 67.70712049 -20.2109375 67.06640625 C-23.61486928 66.22023112 -26.26873395 64.95319009 -29.2109375 63.06640625 C-29.90574219 62.65390625 -30.60054687 62.24140625 -31.31640625 61.81640625 C-39.10585618 56.67215414 -43.11191221 49.01090141 -45.2109375 40.06640625 C-46.74430791 28.12547029 -45.01456447 18.70573031 -37.60546875 8.953125 C-28.48763999 -1.16095108 -12.71721524 -5.60098629 0 0 Z " fill="#131313" transform="translate(974.2109375,636.93359375)"/>
<path d="M0 0 C88.11 0 176.22 0 267 0 C273 12 273 12 273 15 C181.26 15 89.52 15 -5 15 C-4 9 -4 9 0 0 Z " fill="#F9F9F9" transform="translate(533,522)"/>
<path d="M0 0 C7.8235124 4.59886468 13.97316513 11.42898969 16.52734375 20.25390625 C18.24596781 30.23896999 17.94569185 39.99054037 13 49 C12.46375 50.051875 11.9275 51.10375 11.375 52.1875 C6.14953047 58.37555603 -2.0289311 64.13570468 -10.17749023 65.31518555 C-12.56517796 65.4738602 -14.91967227 65.51884868 -17.3125 65.5 C-18.15337158 65.49427979 -18.99424316 65.48855957 -19.8605957 65.48266602 C-26.57108039 65.28975014 -31.54008834 64.06917944 -37 60 C-37.72445313 59.48050781 -38.44890625 58.96101562 -39.1953125 58.42578125 C-45.95940632 53.07191363 -49.68625138 46.23895703 -52 38 C-53.35170663 25.80864602 -51.35564848 17.46205416 -44.1328125 7.3984375 C-41.82391339 4.80198319 -39.56890013 3.1472837 -36.625 1.3125 C-35.70976562 0.73113281 -34.79453125 0.14976562 -33.8515625 -0.44921875 C-23.14076812 -6.27413022 -10.70657595 -5.46357758 0 0 Z " fill="#141414" transform="translate(370,639)"/>
<path d="M0 0 C4.55268141 2.19504282 6.92207326 4.42744402 9 9 C9.44213954 12.49254855 9.40971439 15.96173534 9.38818359 19.47827148 C9.39344055 20.53250305 9.39869751 21.58673462 9.40411377 22.6729126 C9.4173111 26.15579063 9.40857567 29.63821111 9.3984375 33.12109375 C9.40045845 35.54338163 9.40337007 37.96566892 9.40713501 40.38795471 C9.41155814 45.46450595 9.40512802 50.54089881 9.39111328 55.61743164 C9.37403077 62.12200514 9.38385706 68.62620703 9.40183067 75.13076687 C9.41267644 80.13306981 9.40921831 85.13528481 9.4014473 90.13759041 C9.39944702 92.53575751 9.40189849 94.93393262 9.40888596 97.33209038 C9.41651219 100.68571969 9.4048786 104.03874928 9.38818359 107.39233398 C9.39729263 108.87703941 9.39729263 108.87703941 9.40658569 110.39173889 C9.35786547 115.67968087 8.9954903 119.44514854 6 124 C1.57701355 128.09126246 -1.8605105 129.37061749 -7.9375 129.28125 C-11.38132092 128.81163806 -13.40999592 127.22860816 -16 125 C-18.65571122 121.15379754 -20.12186996 118.35699848 -20.14717102 113.70649719 C-20.15432632 112.80513535 -20.16148163 111.9037735 -20.16885376 110.97509766 C-20.17154266 109.98340576 -20.17423157 108.99171387 -20.17700195 107.9699707 C-20.18357315 106.92753708 -20.19014435 105.88510345 -20.19691467 104.81108093 C-20.21668076 101.3493137 -20.22831846 97.88758993 -20.23828125 94.42578125 C-20.24235678 93.24483572 -20.2464323 92.06389019 -20.25063133 90.84715843 C-20.27150748 84.59512887 -20.28580179 78.34312135 -20.29516602 72.09106445 C-20.30622583 65.63243722 -20.34061683 59.17415495 -20.38033772 52.7156496 C-20.40648499 47.75106669 -20.41485627 42.78656612 -20.41844749 37.82192039 C-20.42331932 35.44130311 -20.43495016 33.06068965 -20.45348549 30.68013954 C-20.47783287 27.34548277 -20.47691933 24.01172041 -20.4699707 20.67700195 C-20.48278076 19.69543121 -20.49559082 18.71386047 -20.50878906 17.70254517 C-20.46244307 11.59236896 -19.55942613 8.00766853 -16 3 C-11.5891859 -1.14349204 -5.70217277 -0.75359112 0 0 Z " fill="#F7F7F7" transform="translate(627,368)"/>
<path d="M0 0 C3.5436455 1.96402047 6.18166186 4.36332373 8 8 C8.1005012 9.48143463 8.13939762 10.96726801 8.14717102 12.4520874 C8.15432632 13.38855103 8.16148163 14.32501465 8.16885376 15.28985596 C8.17288712 16.8358548 8.17288712 16.8358548 8.17700195 18.41308594 C8.18357315 19.49614014 8.19014435 20.57919434 8.19691467 21.69506836 C8.21668055 25.29150455 8.22831769 28.88789892 8.23828125 32.484375 C8.24235678 33.71069893 8.2464323 34.93702286 8.25063133 36.20050812 C8.26935207 42.02148103 8.2839144 47.84243744 8.2922433 53.66343474 C8.30103948 59.71096137 8.32032609 65.75823698 8.35668945 71.80566406 C8.3950728 78.29189134 8.41392569 84.77789206 8.41844749 91.26422882 C8.42332376 93.73777759 8.43496711 96.21132257 8.45348549 98.68480682 C8.47779155 102.14658469 8.476927 105.60749915 8.4699707 109.06933594 C8.48278076 110.09190491 8.49559082 111.11447388 8.50878906 112.16802979 C8.46536895 118.09432345 7.969368 121.49874735 4 126 C-0.39414747 128.92943165 -3.76851035 129.55068312 -9 129 C-12.42048261 128.0724115 -14.98427589 127.346762 -17.18029022 124.43503761 C-20.23416935 118.64951508 -20.57096436 113.6495525 -20.51757812 107.18115234 C-20.5245874 106.1264827 -20.53159668 105.07181305 -20.53881836 103.98518372 C-20.55634352 100.5184961 -20.54479614 97.0526326 -20.53125 93.5859375 C-20.53394607 91.16793665 -20.53782944 88.74993685 -20.54284668 86.3319397 C-20.54873399 81.27327109 -20.5402016 76.21488562 -20.52148438 71.15625 C-20.49867132 64.67520357 -20.51183838 58.1948189 -20.53577423 51.71379662 C-20.55023181 46.72434506 -20.54562671 41.73505031 -20.53526306 36.74559402 C-20.53259696 34.35579983 -20.53586141 31.96599135 -20.54518127 29.57621384 C-20.55534841 26.23711183 -20.53984307 22.89908089 -20.51757812 19.56005859 C-20.52567505 18.57496811 -20.53377197 17.58987762 -20.54211426 16.57493591 C-20.46990489 10.72465547 -19.81976284 7.49635384 -16 3 C-11.49706031 -1.39106541 -5.91747645 -0.98109597 0 0 Z " fill="#F9F9F9" transform="translate(718,368)"/>
<path d="M0 0 C4.73132007 2.71854855 6.78904406 4.92141953 8.87109375 10.09375 C9.3022366 13.37643633 9.29147422 16.62795091 9.27514648 19.93530273 C9.28200974 20.91004547 9.28887299 21.88478821 9.29594421 22.8890686 C9.31420251 26.10197637 9.310376 29.31439538 9.3046875 32.52734375 C9.30924974 34.7664455 9.31455543 37.00554585 9.3205719 39.24464417 C9.3295011 43.93439426 9.32708191 48.62397405 9.31713867 53.3137207 C9.3056491 59.31717198 9.32586177 65.32003506 9.35505581 71.32340908 C9.37342064 75.94659648 9.37312474 80.56964301 9.36741829 85.19285774 C9.36726511 87.40599454 9.37330646 89.61914092 9.38570976 91.83224297 C9.40062289 94.9294693 9.38993962 98.02560987 9.37280273 101.12280273 C9.3824707 102.03263412 9.39213867 102.94246552 9.40209961 103.87986755 C9.33385013 109.78433846 8.30842441 113.25308431 4.87109375 118.09375 C0.43354211 121.44897197 -4.09663225 121.65921014 -9.5 121.51953125 C-13.67947616 120.84261758 -15.30954034 119.20228164 -18.12890625 116.09375 C-20.18928274 113.00318526 -20.38002749 112.35662855 -20.38960266 108.86308289 C-20.39668747 108.00097198 -20.40377228 107.13886108 -20.41107178 106.25062561 C-20.40859436 105.30771164 -20.40611694 104.36479767 -20.40356445 103.39331055 C-20.40867538 102.39789246 -20.41378632 101.40247437 -20.41905212 100.37689209 C-20.4329803 97.07802355 -20.43198862 93.77936324 -20.4296875 90.48046875 C-20.43357325 88.18984397 -20.43790766 85.89921992 -20.44267273 83.6085968 C-20.45014232 78.80259875 -20.44983873 73.99667414 -20.44458008 69.19067383 C-20.43879084 63.03356514 -20.45569989 56.87675778 -20.47892475 50.71969891 C-20.49366334 45.98676293 -20.49453349 41.25389945 -20.49141502 36.5209446 C-20.49192838 34.25116187 -20.49716878 31.9813751 -20.50722694 29.71161461 C-20.51957329 26.53500239 -20.51280959 23.358976 -20.5012207 20.18237305 C-20.50886444 19.24553177 -20.51650818 18.30869049 -20.52438354 17.34346008 C-20.4827182 12.17223132 -20.03019175 8.56031289 -17.12890625 4.09375 C-12.14723214 -0.51429855 -6.66071612 -2.83538741 0 0 Z " fill="#F7F7F7" transform="translate(773.12890625,373.90625)"/>
<path d="M0 0 C3.36271267 2.19307348 5.92328259 4.36456326 7.875 7.875 C8.59296968 11.28731605 8.55898698 14.62230724 8.52197266 18.09960938 C8.53511505 19.62265434 8.53511505 19.62265434 8.54852295 21.1764679 C8.57048404 24.5243332 8.5559749 27.87087185 8.5390625 31.21875 C8.54243155 33.54992933 8.54728491 35.88110695 8.55355835 38.21228027 C8.56092527 43.09465278 8.55022933 47.97656748 8.52685547 52.85888672 C8.49836859 59.11369009 8.51477342 65.36742073 8.54471779 71.62218475 C8.56279517 76.43495754 8.55703053 81.24747647 8.54407883 86.06025696 C8.54074607 88.36631904 8.54482724 90.67240426 8.55647659 92.97843933 C8.56919179 96.20304311 8.54979674 99.42591563 8.52197266 102.65039062 C8.53209381 103.60122025 8.54221497 104.55204987 8.55264282 105.5316925 C8.48307087 109.88915795 8.31121872 112.91780628 5.52206421 116.38903809 C0.59399971 121.01717692 -2.52888647 121.41961485 -9.09765625 121.33203125 C-13.65245494 120.64440358 -16.38768297 118.5158974 -19.125 114.875 C-20.04848694 112.10453918 -20.25806324 110.42247042 -20.27890015 107.56167603 C-20.28750061 106.68129166 -20.29610107 105.80090729 -20.30496216 104.8938446 C-20.30922211 103.93065811 -20.31348206 102.96747162 -20.31787109 101.97509766 C-20.32604858 100.95856613 -20.33422607 99.94203461 -20.34265137 98.8946991 C-20.36749271 95.52615958 -20.38401617 92.15766209 -20.3984375 88.7890625 C-20.40376118 87.63963543 -20.40908485 86.49020836 -20.41456985 85.30595016 C-20.44129298 79.22480689 -20.46067262 73.14368411 -20.47509766 67.0625 C-20.49176451 60.77513346 -20.53656232 54.48828914 -20.5874691 48.20112038 C-20.62108201 43.37130107 -20.63266845 38.5416068 -20.63832474 33.71168137 C-20.64505114 31.393589 -20.66030898 29.07550525 -20.68421555 26.7575264 C-20.71574776 23.51581099 -20.7159216 20.27551918 -20.70849609 17.03369141 C-20.72490143 16.07455338 -20.74130676 15.11541534 -20.75820923 14.12721252 C-20.71517368 9.54337926 -20.65832824 7.54983392 -17.73696899 3.85336304 C-16.87501923 3.20050323 -16.01306946 2.54764343 -15.125 1.875 C-13.949375 0.9778125 -13.949375 0.9778125 -12.75 0.0625 C-8.23477149 -1.98010338 -4.60360803 -1.65729889 0 0 Z " fill="#F8F8F9" transform="translate(572.125,374.125)"/>
<path d="M0 0 C7.59713179 4.248471 13.75231843 10.14640154 16.60546875 18.45703125 C16.8271875 19.09253906 17.04890625 19.72804688 17.27734375 20.3828125 C18.836882 25.64098538 19.06264489 31.00281358 18.60546875 36.45703125 C17.60546875 37.45703125 17.60546875 37.45703125 15.47312927 37.57728577 C14.53381058 37.57506516 13.59449188 37.57284454 12.62670898 37.57055664 C11.56568466 37.57048111 10.50466034 37.57040558 9.41148376 37.57032776 C7.68026024 37.56258583 7.68026024 37.56258583 5.9140625 37.5546875 C4.73908707 37.55327255 3.56411163 37.5518576 2.35353088 37.55039978 C-1.41668189 37.54478117 -5.18683629 37.53222551 -8.95703125 37.51953125 C-11.50585852 37.51451865 -14.05468672 37.50995533 -16.60351562 37.50585938 C-22.86720758 37.49480569 -29.13086524 37.47804946 -35.39453125 37.45703125 C-34.64936223 39.05290337 -33.89167697 40.64293433 -33.12890625 42.23046875 C-32.70834961 43.11653809 -32.28779297 44.00260742 -31.85449219 44.91552734 C-29.28467683 49.3890688 -26.25831687 51.79242013 -21.39453125 53.45703125 C-13.08798109 54.76992064 -4.45262334 54.6655022 2.84375 50.13671875 C4.60546875 49.45703125 4.60546875 49.45703125 6.69140625 50.22265625 C9.07208346 51.75795012 10.83891022 53.23247607 12.60546875 55.45703125 C12.578125 57.390625 12.578125 57.390625 11.60546875 59.45703125 C8.98828125 61.125 8.98828125 61.125 5.73046875 62.64453125 C4.66054687 63.15371094 3.590625 63.66289063 2.48828125 64.1875 C-6.59332369 68.18685177 -19.93529557 67.93688767 -29.29296875 64.49609375 C-37.57214099 60.40267402 -44.12689147 54.02751508 -47.76953125 45.51953125 C-51.0064475 35.4644297 -51.06389783 25.33145737 -46.33203125 15.83203125 C-37.05645229 -0.51153888 -17.63882504 -7.37339363 0 0 Z " fill="#171717" transform="translate(1105.39453125,637.54296875)"/>
<path d="M0 0 C6.75172606 5.37069119 10.29850683 10.89013851 12.75 19.1875 C12.75 24.1375 12.75 29.0875 12.75 34.1875 C-4.74 34.1875 -22.23 34.1875 -40.25 34.1875 C-36.60185962 42.39581585 -35.44393831 44.75319033 -28.578125 49.29296875 C-25.10912803 50.62585517 -21.66627516 50.56844467 -18 50.5625 C-16.85591675 50.56552124 -16.85591675 50.56552124 -15.6887207 50.56860352 C-9.8691047 50.46322313 -6.25209882 49.22799144 -1.25 46.1875 C3.00629761 46.64675369 4.92515057 49.12724645 7.75 52.1875 C6.37093985 55.51138856 5.02131019 56.98462016 1.9375 58.8125 C1.27105469 59.21726562 0.60460937 59.62203125 -0.08203125 60.0390625 C-9.40084885 64.97551723 -21.24942396 64.44120893 -31.5 62.60546875 C-40.18786256 59.55636314 -47.22592208 52.60461652 -51.875 44.8125 C-55.92861357 35.75556912 -55.94248289 25.03829292 -53.20703125 15.58203125 C-49.07274644 6.44491441 -42.15149288 0.1576558 -33.171875 -4.12109375 C-21.46524737 -8.33262442 -10.4714931 -5.83987115 0 0 Z " fill="#181818" transform="translate(795.25,640.8125)"/>
<path d="M0 0 C4.62 0 9.24 0 14 0 C14 5.28 14 10.56 14 16 C18.62 16 23.24 16 28 16 C28 19.63 28 23.26 28 27 C23.38 27 18.76 27 14 27 C14.11792026 33.10569107 14.24214373 39.21120819 14.37231445 45.31665039 C14.41573334 47.39539057 14.45740312 49.47416803 14.49731445 51.55297852 C14.55484921 54.53413145 14.61859119 57.51509549 14.68359375 60.49609375 C14.70030624 61.43150497 14.71701874 62.3669162 14.73423767 63.33067322 C14.75418289 64.19149002 14.77412811 65.05230682 14.79467773 65.93920898 C14.81799416 67.08171364 14.81799416 67.08171364 14.84178162 68.24729919 C14.81379329 70.02735006 14.81379329 70.02735006 16 71 C20.28994923 71.16499805 23.75176275 70.84964745 28 70 C28 73.96 28 77.92 28 82 C21.43640906 84.62543638 13.74416179 85.60158747 6.859375 83.27734375 C3.50749109 81.18664848 1.59629005 78.53498672 0 75 C-0.41274068 71.33462362 -0.34867272 67.69609678 -0.29296875 64.01171875 C-0.28872391 62.95338333 -0.28447906 61.89504791 -0.28010559 60.80464172 C-0.26334362 57.43199988 -0.22569512 54.05996055 -0.1875 50.6875 C-0.17244999 48.3977951 -0.15876214 46.10808082 -0.14648438 43.81835938 C-0.11344807 38.21200824 -0.06168204 32.6061062 0 27 C-3.3 27 -6.6 27 -10 27 C-10 23.37 -10 19.74 -10 16 C-6.7 16 -3.4 16 0 16 C0 10.72 0 5.44 0 0 Z " fill="#171717" transform="translate(1019,620)"/>
<path d="M0 0 C4.62 0 9.24 0 14 0 C14 5.28 14 10.56 14 16 C18.62 16 23.24 16 28 16 C28 19.96 28 23.92 28 28 C23.38 28 18.76 28 14 28 C14.09338375 33.80269946 14.19944299 39.60497416 14.31738281 45.40722656 C14.35572349 47.38209644 14.3905673 49.35703736 14.421875 51.33203125 C14.46741547 54.16692545 14.52542715 57.0013283 14.5859375 59.8359375 C14.59748871 60.72243988 14.60903992 61.60894226 14.62094116 62.52230835 C14.64081085 63.34300812 14.66068054 64.16370789 14.68115234 65.00927734 C14.69447601 65.73319672 14.70779968 66.45711609 14.7215271 67.20297241 C14.85787921 69.25153495 14.85787921 69.25153495 17 71 C19.67813399 71.02207488 19.67813399 71.02207488 22.625 70.625 C25.285625 70.315625 25.285625 70.315625 28 70 C28 73.96 28 77.92 28 82 C23.46847661 83.81260936 21.20612641 84.29600657 16.5 84.3125 C15.3965625 84.32925781 14.293125 84.34601563 13.15625 84.36328125 C8.44558776 83.82108869 5.9199217 81.99658184 2.75 78.5625 C0.22302081 74.86228047 -0.12593786 71.83387924 -0.11352539 67.41503906 C-0.11344986 66.51440735 -0.11337433 65.61377563 -0.11329651 64.68585205 C-0.10813522 63.72217712 -0.10297394 62.7585022 -0.09765625 61.765625 C-0.0962413 60.77246277 -0.09482635 59.77930054 -0.09336853 58.75604248 C-0.08777588 55.58733088 -0.0752247 52.41869021 -0.0625 49.25 C-0.05748405 47.10026144 -0.05292131 44.95052177 -0.04882812 42.80078125 C-0.03780885 37.53382688 -0.02054923 32.26692546 0 27 C-2.97 27 -5.94 27 -9 27 C-9 23.37 -9 19.74 -9 16 C-6.03 16 -3.06 16 0 16 C0 10.72 0 5.44 0 0 Z " fill="#131313" transform="translate(460,620)"/>
<path d="M0 0 C5.57251885 3.07954989 8.78673425 6.74218372 11.14453125 12.734375 C12.95312009 19.65645604 12.24189687 26.45104788 9.01953125 32.8046875 C6.13043005 37.1595204 2.53298217 39.91026427 -2.125 42.1875 C-9.7363976 43.6799309 -15.63230203 43.56785827 -22.3359375 39.36328125 C-27.5552511 35.26828619 -30.08004805 30.31088301 -31.3125 23.8125 C-32.09170932 17.1832269 -31.03279584 12.37464722 -27.3125 6.8125 C-20.02274068 -2.09720584 -10.4732467 -4.85983254 0 0 Z " fill="#F6F6F6" transform="translate(973.3125,649.1875)"/>
<path d="M0 0 C4.24956311 2.97395254 6.59427278 6.63438083 8.23828125 11.56640625 C9.51042656 27.90438667 9.51042656 27.90438667 4.66015625 34.08984375 C-0.50130219 39.44981982 -5.21005171 41.60021175 -12.63671875 41.94140625 C-19.43147462 41.7779234 -23.81201443 39.51611057 -28.57421875 34.75390625 C-33.63149192 27.38473678 -34.79461694 21.48257336 -33.76171875 12.56640625 C-31.96012948 5.77928693 -27.58932871 2.13816719 -21.76171875 -1.43359375 C-14.45929536 -5.55290951 -7.0139445 -3.82876286 0 0 Z " fill="#F6F6F6" transform="translate(706.76171875,650.43359375)"/>
<path d="M0 0 C5.61558331 3.06542728 8.70334371 6.79753114 10.75 12.9375 C11.97253193 29.83249038 11.97253193 29.83249038 6.75 35.9375 C0.65614657 41.50411863 -4.16051043 43.31961728 -12.3984375 43.2109375 C-18.46016984 42.62967549 -22.55506108 39.98549386 -26.625 35.5625 C-31.7158393 28.99144384 -32.10124931 22.03500908 -31.25 13.9375 C-29.54397531 8.03426683 -26.31958958 4.41663011 -21.25 0.9375 C-13.87210069 -3.09946377 -7.62580102 -3.43331012 0 0 Z " fill="#F6F6F6" transform="translate(623.25,649.0625)"/>
<path d="M0 0 C5.61810947 3.15525649 8.7819822 7.00171976 10.8125 13.125 C11.8114021 20.52311866 12.04247495 28.08311955 8.01171875 34.6171875 C6.17071936 36.93192941 4.29932684 38.5263256 1.8125 40.125 C0.94625 40.7025 0.08 41.28 -0.8125 41.875 C-6.94140881 44.14496623 -13.46544102 44.24967406 -19.5 41.5625 C-25.22303876 38.24854326 -29.15464046 33.39994542 -31.1875 27.125 C-31.91274317 20.29641176 -31.96133602 13.08579399 -28.1875 7.125 C-20.62490877 -1.45375335 -10.5926667 -4.4851832 0 0 Z " fill="#F6F6F6" transform="translate(542.1875,648.875)"/>
<path d="M0 0 C4.67314163 3.44545188 7.48911464 8.25250017 9.3046875 13.69921875 C10.04332563 21.08560004 9.48078039 27.42286862 5.3046875 33.69921875 C1.20401169 38.22745317 -3.18456862 41.30572926 -9.37890625 42 C-17.53614584 42.03471166 -22.5901387 40.30937846 -28.6953125 34.69921875 C-33.59194812 27.70402501 -33.51463644 20.01349469 -32.6953125 11.69921875 C-30.35219706 5.18495385 -25.29666829 0.7432315 -19.3828125 -2.61328125 C-12.19416888 -4.45223659 -6.52250408 -3.54572262 0 0 Z " fill="#F5F5F5" transform="translate(364.6953125,650.30078125)"/>
<path d="M0 0 C2.3821875 0.0309375 2.3821875 0.0309375 4.8125 0.0625 C4.8125 4.3525 4.8125 8.6425 4.8125 13.0625 C3.12125 13.330625 1.43 13.59875 -0.3125 13.875 C-8.40051446 15.3681719 -13.64856902 18.0736548 -18.49072266 24.8996582 C-23.39629398 33.26348204 -22.96865544 41.78413153 -23 51.1875 C-23.02318321 52.82815768 -23.04855638 54.46878594 -23.07617188 56.109375 C-23.13853304 60.09386 -23.17125449 64.07757108 -23.1875 68.0625 C-27.8075 68.0625 -32.4275 68.0625 -37.1875 68.0625 C-37.1875 45.9525 -37.1875 23.8425 -37.1875 1.0625 C-32.5675 1.0625 -27.9475 1.0625 -23.1875 1.0625 C-22.8575 5.6825 -22.5275 10.3025 -22.1875 15.0625 C-21.2284375 13.268125 -21.2284375 13.268125 -20.25 11.4375 C-15.73758835 4.15816544 -8.53644325 -0.1108629 0 0 Z " fill="#151515" transform="translate(436.1875,634.9375)"/>
<path d="M0 0 C4.08544995 3.09526011 7.19707521 6.71409626 9.125 11.5 C9.125 12.82 9.125 14.14 9.125 15.5 C-4.405 15.5 -17.935 15.5 -31.875 15.5 C-30.64823724 8.13942342 -28.65350897 4.65476206 -22.8125 0.125 C-15.75034885 -3.78172191 -6.97602942 -4.31181718 0 0 Z " fill="#EEEEEE" transform="translate(1101.875,649.5)"/>
<path d="M0 0 C5.01186915 2.80664673 8.66629014 5.44436294 11.125 10.75 C11.125 12.4 11.125 14.05 11.125 15.75 C-2.075 15.75 -15.275 15.75 -28.875 15.75 C-25.49381188 5.60643564 -25.49381188 5.60643564 -22.4375 3.3125 C-21.57318359 2.63380859 -21.57318359 2.63380859 -20.69140625 1.94140625 C-14.44172386 -2.15784779 -7.05261113 -2.83654469 0 0 Z " fill="#F6F6F6" transform="translate(783.875,648.25)"/>
<path d="M0 0 C3.70390021 2.02666238 5.65363011 3.48044516 8 7 C8.46972834 11.77557141 8.47049228 14.05901543 6.3125 18.375 C3.09311534 22.02943664 0.78304343 22.73444034 -3.9375 23.4375 C-8.27876742 22.81731894 -9.88058952 21.04686605 -13 18 C-14.74221711 14.51556578 -14.58675154 10.80112955 -14 7 C-10.60242193 0.86407543 -6.79897031 -0.56658086 0 0 Z " fill="#2E4565" transform="translate(546,756)"/>
<path d="M0 0 C3.09133781 2.06089188 4.5494329 3.5523199 5.66015625 7.12109375 C6.39020009 11.32416169 6.22915703 13.51524474 4.375 17.4375 C1.08530575 20.98690695 -1.236724 21.73738443 -5.9375 22.4375 C-10.27876742 21.81731894 -11.88058952 20.04686605 -15 17 C-16.74221711 13.51556578 -16.58675154 9.80112955 -16 6 C-12.07703631 -1.08475532 -7.35947783 -1.80491512 0 0 Z " fill="#2D4464" transform="translate(753,757)"/>
<path d="M0 0 C2.475 0.495 2.475 0.495 5 1 C6.54365573 3.4155077 7.66693722 5.47798805 8.8125 8.0625 C9.864375 10.351875 10.91625 12.64125 12 15 C14.31 10.38 16.62 5.76 19 1 C20.32 1 21.64 1 23 1 C23 8.26 23 15.52 23 23 C21.68 23 20.36 23 19 23 C18.505 18.05 18.505 18.05 18 13 C16.68 15.97 15.36 18.94 14 22 C11.75 22.0625 11.75 22.0625 9 21 C7.28027685 18.08800873 6.2099577 15.18174061 5 12 C4.67 15.63 4.34 19.26 4 23 C2.68 23 1.36 23 0 23 C0 15.41 0 7.82 0 0 Z " fill="#2D4564" transform="translate(784,756)"/>
<path d="M0 0 C11.12903226 0 11.12903226 0 15 3 C16.28636435 7.08609853 16.45683606 9.06646543 14.5625 12.9375 C13.7890625 13.9584375 13.7890625 13.9584375 13 15 C13.66 15.94875 14.32 16.8975 15 17.875 C17 21 17 21 17 23 C14.75 22.875 14.75 22.875 12 22 C10.63823419 20.01924973 9.30406884 18.01920337 8 16 C5.87880872 15.04768403 5.87880872 15.04768403 4 15 C4 17.64 4 20.28 4 23 C2.68 23 1.36 23 0 23 C0 15.41 0 7.82 0 0 Z " fill="#344B6A" transform="translate(621,756)"/>
<path d="M0 0 C1.32 0 2.64 0 4 0 C4 7.59 4 15.18 4 23 C2.68 23 1.36 23 0 23 C0 19.7 0 16.4 0 13 C-2.97 13 -5.94 13 -9 13 C-9 15.97 -9 18.94 -9 22 C-10.32 22 -11.64 22 -13 22 C-13 15.07 -13 8.14 -13 1 C-11.68 1 -10.36 1 -9 1 C-9 3.97 -9 6.94 -9 10 C-6.03 10 -3.06 10 0 10 C0 6.7 0 3.4 0 0 Z " fill="#2B4363" transform="translate(707,756)"/>
<path d="M0 0 C1.32 0 2.64 0 4 0 C4.06058594 1.21558594 4.12117187 2.43117188 4.18359375 3.68359375 C4.26798332 5.26824228 4.3526321 6.85287702 4.4375 8.4375 C4.47681641 9.23994141 4.51613281 10.04238281 4.55664062 10.86914062 C4.4054296 14.75239561 4.4054296 14.75239561 6 18 C8.5 18.16666667 8.5 18.16666667 11 18 C13.11925604 15.88074396 12.41831017 11.3803907 12.5625 8.4375 C12.60568359 7.63119141 12.64886719 6.82488281 12.69335938 5.99414062 C12.79975262 3.99631195 12.90040888 1.9981793 13 0 C14.32 0 15.64 0 17 0 C17.05404449 2.75026417 17.09369306 5.49946203 17.125 8.25 C17.15013672 9.41595703 17.15013672 9.41595703 17.17578125 10.60546875 C17.23860466 17.95580751 17.23860466 17.95580751 15 21 C11.9174424 22.84953456 9.99355434 22.99988887 6.375 22.9375 C3 22 3 22 1.30078125 19.9921875 C-0.45344161 15.95694812 -0.32948098 12.53066192 -0.1875 8.1875 C-0.17396484 7.39923828 -0.16042969 6.61097656 -0.14648438 5.79882812 C-0.11133456 3.86558831 -0.05753361 1.93270318 0 0 Z " fill="#2D4464" transform="translate(579,756)"/>
<path d="M0 0 C2.4375 2.0625 2.4375 2.0625 4 5 C4 8.84949295 3.86589381 11.04133185 1.25 13.9375 C-1.49491218 15.23370853 -3.00074212 15.52487013 -6 15 C-8.3125 13.4375 -8.3125 13.4375 -10 11 C-10.56783945 7.02512383 -10.62340519 4.93510779 -8.375 1.5625 C-5.2629338 -0.48491197 -3.65605504 -0.68551032 0 0 Z " fill="#EFF0F2" transform="translate(751,760)"/>
<path d="M0 0 C2.4375 2.0625 2.4375 2.0625 4 5 C4 8.84949295 3.86589381 11.04133185 1.25 13.9375 C-1.49491218 15.23370853 -3.00074212 15.52487013 -6 15 C-8.3125 13.4375 -8.3125 13.4375 -10 11 C-10.56783945 7.02512383 -10.62340519 4.93510779 -8.375 1.5625 C-5.2629338 -0.48491197 -3.65605504 -0.68551032 0 0 Z " fill="#F0F1F2" transform="translate(546,760)"/>
<path d="M0 0 C4.29 0 8.58 0 13 0 C13 0.99 13 1.98 13 3 C10.03 3 7.06 3 4 3 C4 4.98 4 6.96 4 9 C6.31 9 8.62 9 11 9 C11 9.99 11 10.98 11 12 C8.69 12 6.38 12 4 12 C4 13.98 4 15.96 4 18 C6.97 18 9.94 18 13 18 C13 18.99 13 19.98 13 21 C8.71 21 4.42 21 0 21 C0 14.07 0 7.14 0 0 Z " fill="#20395B" transform="translate(833,757)"/>
<path d="M0 0 C1.32 0 2.64 0 4 0 C2.91956722 3.24129833 1.59709257 5.53473724 -0.5625 8.125 C-3.95038249 12.61892648 -3.89140703 17.54073534 -4 23 C-5.32 23 -6.64 23 -8 23 C-8.00257813 22.31035156 -8.00515625 21.62070312 -8.0078125 20.91015625 C-8.28509603 14.17216651 -9.60686472 10.13271484 -13.72265625 4.77734375 C-15 3 -15 3 -15 1 C-12.6875 1.1875 -12.6875 1.1875 -10 2 C-8.1875 4.5625 -8.1875 4.5625 -7 7 C-3.7087885 6.25439818 -3.7087885 6.25439818 -2.0625 2.9375 C-1.381875 1.968125 -0.70125 0.99875 0 0 Z " fill="#2F4666" transform="translate(503,756)"/>
<path d="M0 0 C0.33 0 0.66 0 1 0 C1 19.14 1 38.28 1 58 C0.67 58 0.34 58 0 58 C-0.33 41.17 -0.66 24.34 -1 7 C-1.99 7.495 -1.99 7.495 -3 8 C-1.125 2.25 -1.125 2.25 0 0 Z " fill="#C9C9C9" transform="translate(901,645)"/>
<path d="M0 0 C2.875 -0.125 2.875 -0.125 6 0 C6.66 0.66 7.32 1.32 8 2 C7.8125 4 7.8125 4 7 6 C4 8 4 8 0 8 C0 5.36 0 2.72 0 0 Z " fill="#D8DCE1" transform="translate(625,760)"/>
</svg>
